<?xml version="1.0" encoding="utf-8"?>
<!-- Generator: Adobe Illustrator 16.0.0, SVG Export Plug-In . SVG Version: 6.00 Build 0)  -->
<!DOCTYPE svg PUBLIC "-//W3C//DTD SVG 1.1//EN" "http://www.w3.org/Graphics/SVG/1.1/DTD/svg11.dtd">
<svg version="1.1" xmlns="http://www.w3.org/2000/svg" xmlns:xlink="http://www.w3.org/1999/xlink" x="0px" y="0px" width="602px"
	 height="600px" viewBox="0 0 602 600" enable-background="new 0 0 602 600" xml:space="preserve">
<g id="Group_1_1_">
	<g id="Ellipse_1">
		<g>
			<path fill="none" stroke="#E52F12" stroke-width="2" stroke-miterlimit="10" d="M335.677,0h-69.354
				C116.422,17.198,0,144.493,0,299c0,166.237,134.762,301,301,301c166.237,0,301-134.763,301-301
				C602,144.493,485.578,17.198,335.677,0z"/>
		</g>
	</g>
	<g id="Ellipse_1_copy">
		<g>
			<circle fill="none" stroke="#E52F12" stroke-width="2" stroke-miterlimit="10" cx="301" cy="299" r="283.207"/>
		</g>
	</g>
	<g id="Ellipse_1_copy_2">
		<g>
			<circle fill="none" stroke="#E52F12" stroke-width="2" stroke-miterlimit="10" cx="301" cy="299" r="192.759"/>
		</g>
	</g>
	<g id="Ellipse_1_copy_3">
		<g>
			<circle fill="#2E3192" cx="300.259" cy="298.259" r="177.189"/>
		</g>
	</g>
	<g id="_x2A___THE_REDEEMED_CHRISTIAN___x2A_">
		<path fill="none" d="M313.439,90c143.959,2.595,216.624,124.339,206.624,241.752c-10.002,117.41-113.249,204.486-230.608,194.489
			C172.093,516.244,90.2,413.283,95.066,295.546C102.863,106.891,238.478,88.649,313.439,90z"/>
		
			<text transform="matrix(-0.4668 -0.8838 0.8842 -0.4671 128.0859 426.4434)" fill="#00A551" font-family="'MyriadWebPro'" font-size="68">*</text>
		
			<text transform="matrix(-0.3794 -0.9248 0.9252 -0.3795 114.957 400.8594)" fill="#00A551" font-family="'MyriadWebPro'" font-size="68"> </text>
		
			<text transform="matrix(-0.3185 -0.9475 0.9479 -0.3187 109.3345 387.1504)" fill="#00A551" font-family="'MyriadWebPro'" font-size="68"> </text>
		
			<text transform="matrix(-0.2141 -0.9764 0.9768 -0.2142 104.0723 373.2021)" fill="#00A551" font-family="'MyriadWebPro'" font-size="68">T</text>
		
			<text transform="matrix(-0.0433 -0.9986 0.9991 -0.0434 96.082 338.8486)" fill="#00A551" font-family="'MyriadWebPro'" font-size="68">H</text>
		
			<text transform="matrix(0.0951 -0.995 0.9955 0.0951 94.769 292.8486)" fill="#00A551" font-family="'MyriadWebPro'" font-size="68">E</text>
		
			<text transform="matrix(0.1724 -0.9846 0.985 0.1725 98.4277 258.3564)" fill="#00A551" font-family="'MyriadWebPro'" font-size="68"> </text>
		
			<text transform="matrix(0.2692 -0.9626 0.963 0.2693 100.3887 243.6143)" fill="#00A551" font-family="'MyriadWebPro'" font-size="68">R</text>
		
			<text transform="matrix(0.4274 -0.9036 0.904 0.4276 110.6304 207.084)" fill="#00A551" font-family="'MyriadWebPro'" font-size="68">E</text>
		
			<text transform="matrix(0.6257 -0.7795 0.7799 0.626 124.8213 175.1221)" fill="#00A551" font-family="'MyriadWebPro'" font-size="68">D</text>
		
			<text transform="matrix(0.8029 -0.5954 0.5957 0.8032 155.0635 138.752)" fill="#00A551" font-family="'MyriadWebPro'" font-size="68">E</text>
		
			<text transform="matrix(0.9063 -0.4216 0.4218 0.9067 183.043 118.1113)" fill="#00A551" font-family="'MyriadWebPro'" font-size="68">E</text>
		
			<text transform="matrix(0.9761 -0.2154 0.2155 0.9765 214.3433 102.5176)" fill="#00A551" font-family="'MyriadWebPro'" font-size="68">M</text>
		
			<text transform="matrix(0.9981 -0.0546 0.0546 0.9985 269.7324 91.3994)" fill="#00A551" font-family="'MyriadWebPro'" font-size="68">E</text>
		
			<text transform="matrix(0.9967 0.0758 -0.0759 0.9971 304.4072 88.8877)" fill="#00A551" font-family="'MyriadWebPro'" font-size="68">D</text>
		
			<text transform="matrix(0.9774 0.2094 -0.2095 0.9778 351.3271 93.5146)" fill="#00A551" font-family="'MyriadWebPro'" font-size="68"> </text>
		
			<text transform="matrix(0.9406 0.3381 -0.3383 0.9411 366.1221 95.7666)" fill="#00A551" font-family="'MyriadWebPro'" font-size="68">C</text>
		
			<text transform="matrix(0.8427 0.5376 -0.5379 0.843 405.125 109.4785)" fill="#00A551" font-family="'MyriadWebPro'" font-size="68">H</text>
		
			<text transform="matrix(0.7074 0.7062 -0.7065 0.7077 443.7393 134.6748)" fill="#00A551" font-family="'MyriadWebPro'" font-size="68">R</text>
		
			<text transform="matrix(0.6051 0.7956 -0.7959 0.6054 470.0156 161.9375)" fill="#00A551" font-family="'MyriadWebPro'" font-size="68">I</text>
		
			<text transform="matrix(0.5033 0.8636 -0.864 0.5035 480.6533 175.041)" fill="#00A551" font-family="'MyriadWebPro'" font-size="68">S</text>
		
			<text transform="matrix(0.3626 0.9315 -0.9319 0.3628 498.1816 205.1592)" fill="#00A551" font-family="'MyriadWebPro'" font-size="68">T</text>
		
			<text transform="matrix(0.2581 0.9657 -0.9661 0.2582 510.4521 238.0947)" fill="#00A551" font-family="'MyriadWebPro'" font-size="68">I</text>
		
			<text transform="matrix(0.1382 0.99 -0.9904 0.1383 515.5771 254.1914)" fill="#00A551" font-family="'MyriadWebPro'" font-size="68">A</text>
		
			<text transform="matrix(-0.0394 0.9988 -0.9992 -0.0395 521.6924 297.1123)" fill="#00A551" font-family="'MyriadWebPro'" font-size="68">N</text>
		
			<text transform="matrix(-0.1726 0.9845 -0.985 -0.1727 518.8779 343.4346)" fill="#00A551" font-family="'MyriadWebPro'" font-size="68"> </text>
		
			<text transform="matrix(-0.2404 0.9702 -0.9706 -0.2405 516.3164 358.0498)" fill="#00A551" font-family="'MyriadWebPro'" font-size="68"> </text>
		
			<text transform="matrix(-0.3386 0.9405 -0.9409 -0.3387 513.0898 372.5547)" fill="#00A551" font-family="'MyriadWebPro'" font-size="68">*</text>
	</g>
	<g id="CHURCH_OF_GOD">
		<path fill="none" d="M343.618,125.536C211.312,107.979,88.177,192.888,68.59,315.188
			c-19.587,122.299,71.791,235.674,204.098,253.231c132.308,17.558,255.441-67.353,275.028-189.651
			C567.304,256.468,343.618,125.536,343.618,125.536z"/>
		
			<text transform="matrix(0.6729 0.823 -0.786 0.6396 102.4707 467.3838)" fill="#00A551" font-family="'MyriadWebPro'" font-size="60">C</text>
		
			<text transform="matrix(0.8085 0.6923 -0.6669 0.7613 126.8267 497.4453)" fill="#00A551" font-family="'MyriadWebPro'" font-size="60">H</text>
		
			<text transform="matrix(0.9221 0.5375 -0.5249 0.8623 159.7676 525.5977)" fill="#00A551" font-family="'MyriadWebPro'" font-size="60">U</text>
		
			<text transform="matrix(0.9993 0.3853 -0.3843 0.9298 197.1714 547.04)" fill="#00A551" font-family="'MyriadWebPro'" font-size="60">R</text>
		
			<text transform="matrix(1.0488 0.2358 -0.2456 0.9718 230.5981 560.0322)" fill="#00A551" font-family="'MyriadWebPro'" font-size="60">C</text>
		
			<text transform="matrix(1.0773 0.069 -0.0903 0.9941 268.7192 568.7783)" fill="#00A551" font-family="'MyriadWebPro'" font-size="60">H</text>
		
			<text transform="matrix(1.0815 -0.0506 0.0215 0.995 312.5449 570.7627)" fill="#00A551" font-family="'MyriadWebPro'" font-size="60"> </text>
		
			<text transform="matrix(1.0711 -0.1773 0.1403 0.9825 326.7959 571.0547)" fill="#00A551" font-family="'MyriadWebPro'" font-size="60">O</text>
		
			<text transform="matrix(1.034 -0.3417 0.2949 0.9443 372.9658 562.8721)" fill="#00A551" font-family="'MyriadWebPro'" font-size="60">F</text>
		
			<text transform="matrix(0.9992 -0.4367 0.3847 0.91 404.2178 552.0859)" fill="#00A551" font-family="'MyriadWebPro'" font-size="60"> </text>
		
			<text transform="matrix(0.9428 -0.5502 0.4921 0.8554 417.7139 547.1328)" fill="#00A551" font-family="'MyriadWebPro'" font-size="60">G</text>
		
			<text transform="matrix(0.8242 -0.7161 0.6502 0.7421 456.0049 524.9727)" fill="#00A551" font-family="'MyriadWebPro'" font-size="60">O</text>
		
			<text transform="matrix(0.6647 -0.8636 0.792 0.5917 491.6309 493.9414)" fill="#00A551" font-family="'MyriadWebPro'" font-size="60">D</text>
	</g>
	<g id="Layer_6">
		<path fill="#FFFFFF" d="M141,308.479l28.5,4.021l-4-10l30,6.5l-6.5-10.741l24.729,3.413L206,289.5l23.5,4l-2-12.5l22.5,6.5
			l-4.5-13l14.5,3l7.5-6.5L249,224c0,0,0.833-6.167,8.5-6s10.833,5.5,10.833,5.5s4.333-5.507,11.5-5.503s10,3.67,10,3.67
			s2.184-3.673,10.425-3.67s9.908,4.17,9.908,4.17s2.666-4.34,11.833-4.17s10.334,3.67,10.334,3.67s5.5-4.35,13.333-3.675
			S356.5,223.5,356.5,223.5L339,270.833l7.167,6.662l13-2.167l-1.667,9.667l20-4.246L376,295l24.25-7.25L399,300l22.5-4.5
			l-2.75,12.979l21-4.729l-2.5,8.75l31-5.25c0,0-23.5,32-45.5,42.75s-23,13.25-42.25,16.5s-42-9-45.75-13.75c0,0-3.5-1.5-5.25,1
			s-3.75,18-18.75,24L302,391l-5.25-12.5c0,0-16.75-12.5-20.75-23c0,0-1.833-6.249-4.625-1.166S253.333,368.999,235,366.333
			s-42-11.334-47-18c0,0-21.333-14.666-23.333-16.666S141,308.479,141,308.479z"/>
	</g>
</g>
<g id="Layer_5">
</g>
</svg>
